<?xml version="1.0" standalone="no"?>
<!DOCTYPE svg PUBLIC "-//W3C//DTD SVG 20010904//EN"
 "http://www.w3.org/TR/2001/REC-SVG-20010904/DTD/svg10.dtd">
<svg version="1.0" xmlns="http://www.w3.org/2000/svg"
 width="200.000000pt" height="117.000000pt" viewBox="0 0 200.000000 117.000000"
 preserveAspectRatio="xMidYMid meet">
<metadata>
Created by potrace 1.10, written by Peter Selinger 2001-2011
</metadata>
<g transform="translate(0.000000,117.000000) scale(0.100000,-0.100000)"
fill="#000000" stroke="none">
<path d="M982 1098 c-6 -6 -36 -12 -67 -12 -30 -1 -55 -3 -55 -6 0 -3 3 -15 6
-28 6 -22 9 -23 138 -20 125 3 131 4 134 24 3 19 -3 22 -57 28 -33 4 -63 11
-66 16 -8 13 -19 12 -33 -2z m33 -18 c3 -5 28 -12 55 -16 89 -12 53 -24 -70
-24 -73 0 -120 4 -120 10 0 6 15 10 33 10 17 0 43 7 57 14 31 18 37 18 45 6z"/>
<path d="M800 999 c0 -4 10 -9 23 -12 22 -6 44 -50 153 -309 26 -62 44 -85 44
-58 0 6 33 90 72 187 50 120 79 178 90 181 37 9 16 18 -42 17 -44 0 -55 -2
-40 -9 11 -5 20 -16 20 -25 0 -26 -93 -252 -100 -244 -11 13 -100 234 -100
249 0 8 6 14 14 14 8 0 17 3 19 8 3 4 -30 7 -74 7 -43 0 -79 -3 -79 -6z"/>
<path d="M21 435 c15 -8 29 -22 32 -32 3 -10 35 -90 70 -178 63 -154 66 -159
77 -130 70 193 135 338 154 345 15 6 4 9 -39 9 -45 0 -56 -2 -42 -10 9 -5 17
-15 17 -22 0 -20 -84 -227 -92 -227 -4 0 -8 5 -8 11 0 5 -20 58 -45 116 -25
59 -42 110 -38 114 4 4 17 9 28 12 11 3 -16 5 -60 5 -75 1 -78 0 -54 -13z"/>
<path d="M345 263 c-31 -76 -68 -148 -82 -160 l-24 -23 53 1 c29 1 45 3 36 6
-22 5 -22 20 -4 63 13 31 17 33 69 35 52 3 56 1 65 -24 6 -14 13 -34 17 -43 5
-13 1 -20 -16 -27 -16 -7 46 -10 191 -10 138 0 207 4 193 9 -22 9 -23 14 -22
127 0 78 3 111 9 98 35 -78 90 -216 90 -224 0 -18 17 -12 23 7 12 40 95 231
98 228 2 -3 3 -54 1 -116 -3 -103 -5 -112 -25 -120 -16 -6 -2 -9 48 -9 52 0
64 3 48 9 -22 9 -23 14 -23 150 0 138 0 140 22 140 15 0 19 3 12 10 -7 7 -25
7 -49 2 -38 -8 -40 -10 -84 -115 -25 -58 -48 -103 -51 -99 -4 4 -26 53 -50
110 -24 56 -49 102 -55 102 -7 0 -27 3 -44 6 -34 7 -44 -10 -11 -19 19 -5 20
-14 20 -135 0 -104 -3 -132 -15 -142 -22 -18 -29 -6 -17 29 13 37 0 42 -16 6
-13 -27 -42 -38 -93 -33 l-34 3 -3 115 c-3 128 1 160 23 160 8 0 15 3 15 8 0
4 -27 7 -60 7 -60 0 -78 -8 -40 -18 19 -5 20 -14 20 -135 0 -105 -3 -132 -15
-142 -10 -8 -19 -9 -25 -4 -4 5 -36 74 -70 154 -34 80 -63 146 -64 148 -2 1
-29 -60 -61 -135z m80 -34 c6 -23 4 -24 -34 -21 -23 2 -41 5 -41 7 0 1 10 24
22 51 l21 49 13 -31 c7 -17 16 -42 19 -55z"/>
<path d="M1198 379 c-102 -53 -104 -225 -3 -284 119 -70 255 8 255 146 0 123
-139 198 -252 138z m157 -25 c32 -35 48 -95 40 -148 -13 -78 -51 -116 -116
-116 -66 0 -104 55 -103 150 1 93 39 139 112 140 34 0 48 -6 67 -26z"/>
<path d="M1457 380 c31 -18 32 -21 28 -72 -2 -29 -4 -88 -5 -131 0 -71 -2 -78
-22 -87 -17 -6 -6 -9 42 -8 42 0 56 2 40 7 -25 7 -25 8 -28 126 -1 65 -1 117
1 115 13 -15 138 -173 170 -214 20 -27 37 -43 37 -35 1 8 2 77 3 153 1 101 5
140 15 143 8 3 12 -7 13 -29 1 -33 1 -33 10 -7 8 22 18 28 49 31 l40 4 0 -139
c0 -133 -1 -138 -22 -147 -17 -6 -5 -9 47 -9 52 0 64 3 48 9 -22 9 -23 14 -23
147 l0 139 39 -4 c28 -3 42 -10 49 -25 9 -20 11 -18 11 16 l1 37 -175 0 c-96
0 -175 -2 -175 -5 0 -3 11 -10 25 -15 24 -9 25 -12 25 -112 0 -56 -4 -98 -8
-92 -5 5 -46 57 -91 117 l-82 107 -47 0 -47 0 32 -20z"/>
</g>
</svg>
